<svg width="800" height="250" viewBox="0 0 800 250" xmlns="http://www.w3.org/2000/svg">
  <defs>
    <!-- Sky gradient -->
    <linearGradient id="sky" x1="0" y1="0" x2="0" y2="1">
      <stop offset="0%" stop-color="#D4E8F7"/>
      <stop offset="60%" stop-color="#E8F5E9"/>
      <stop offset="100%" stop-color="#F1F8E9"/>
    </linearGradient>

    <!-- Sun glow -->
    <radialGradient id="sunGlow" cx="0.5" cy="0.5" r="0.5">
      <stop offset="0%" stop-color="#FFF9C4"/>
      <stop offset="50%" stop-color="#FFF176" stop-opacity="0.6"/>
      <stop offset="100%" stop-color="#FFF176" stop-opacity="0"/>
    </radialGradient>

    <!-- Hill gradients -->
    <linearGradient id="hill1" x1="0" y1="0" x2="0" y2="1">
      <stop offset="0%" stop-color="#A5D6A7"/>
      <stop offset="100%" stop-color="#81C784"/>
    </linearGradient>
    <linearGradient id="hill2" x1="0" y1="0" x2="0" y2="1">
      <stop offset="0%" stop-color="#81C784"/>
      <stop offset="100%" stop-color="#66BB6A"/>
    </linearGradient>
    <linearGradient id="hill3" x1="0" y1="0" x2="0" y2="1">
      <stop offset="0%" stop-color="#66BB6A"/>
      <stop offset="100%" stop-color="#4CAF50"/>
    </linearGradient>

    <!-- Petal gradients -->
    <radialGradient id="petalPink" cx="0.3" cy="0.3" r="0.7">
      <stop offset="0%" stop-color="#F8BBD0"/>
      <stop offset="100%" stop-color="#EC407A"/>
    </radialGradient>
    <radialGradient id="petalYellow" cx="0.3" cy="0.3" r="0.7">
      <stop offset="0%" stop-color="#FFF9C4"/>
      <stop offset="100%" stop-color="#FFB300"/>
    </radialGradient>
    <radialGradient id="petalPurple" cx="0.3" cy="0.3" r="0.7">
      <stop offset="0%" stop-color="#E1BEE7"/>
      <stop offset="100%" stop-color="#AB47BC"/>
    </radialGradient>
    <radialGradient id="petalBlue" cx="0.3" cy="0.3" r="0.7">
      <stop offset="0%" stop-color="#B3E5FC"/>
      <stop offset="100%" stop-color="#29B6F6"/>
    </radialGradient>
    <radialGradient id="petalRed" cx="0.3" cy="0.3" r="0.7">
      <stop offset="0%" stop-color="#FFCDD2"/>
      <stop offset="100%" stop-color="#EF5350"/>
    </radialGradient>
    <radialGradient id="petalWhite" cx="0.3" cy="0.3" r="0.7">
      <stop offset="0%" stop-color="#FFFFFF"/>
      <stop offset="100%" stop-color="#E0E0E0"/>
    </radialGradient>

    <!-- Butterfly wing gradient -->
    <linearGradient id="bfWingL" x1="0" y1="0" x2="1" y2="1">
      <stop offset="0%" stop-color="#FF8A65"/>
      <stop offset="100%" stop-color="#E65100"/>
    </linearGradient>
    <linearGradient id="bfWingR" x1="1" y1="0" x2="0" y2="1">
      <stop offset="0%" stop-color="#FF8A65"/>
      <stop offset="100%" stop-color="#E65100"/>
    </linearGradient>
    <linearGradient id="bf2WingL" x1="0" y1="0" x2="1" y2="1">
      <stop offset="0%" stop-color="#90CAF9"/>
      <stop offset="100%" stop-color="#1565C0"/>
    </linearGradient>
    <linearGradient id="bf2WingR" x1="1" y1="0" x2="0" y2="1">
      <stop offset="0%" stop-color="#90CAF9"/>
      <stop offset="100%" stop-color="#1565C0"/>
    </linearGradient>

    <!-- Text shadow filter -->
    <filter id="textShadow" x="-5%" y="-5%" width="110%" height="110%">
      <feDropShadow dx="1" dy="1" stdDeviation="2" flood-color="#2E7D32" flood-opacity="0.3"/>
    </filter>
  </defs>

  <!-- Sky -->
  <rect width="800" height="250" rx="12" fill="url(#sky)"/>

  <!-- Sun with glow -->
  <circle cx="680" cy="45" r="60" fill="url(#sunGlow)">
    <animate attributeName="r" values="58;62;58" dur="6s" repeatCount="indefinite"/>
  </circle>
  <circle cx="680" cy="45" r="22" fill="#FFF176" opacity="0.9">
    <animate attributeName="opacity" values="0.85;1;0.85" dur="4s" repeatCount="indefinite"/>
  </circle>

  <!-- Soft clouds -->
  <g opacity="0.5">
    <ellipse cx="150" cy="40" rx="50" ry="16" fill="white"/>
    <ellipse cx="180" cy="35" rx="35" ry="12" fill="white"/>
    <ellipse cx="120" cy="38" rx="30" ry="11" fill="white"/>
    <animateTransform attributeName="transform" type="translate" values="0,0;20,0;0,0" dur="30s" repeatCount="indefinite"/>
  </g>
  <g opacity="0.35">
    <ellipse cx="500" cy="55" rx="40" ry="13" fill="white"/>
    <ellipse cx="530" cy="50" rx="30" ry="10" fill="white"/>
    <animateTransform attributeName="transform" type="translate" values="0,0;-15,0;0,0" dur="25s" repeatCount="indefinite"/>
  </g>

  <!-- Far hills (background) -->
  <path d="M0 200 Q100 150, 200 180 T400 160 T600 175 T800 155 L800 250 L0 250Z" fill="url(#hill1)" opacity="0.5"/>
  <!-- Mid hills -->
  <path d="M0 220 Q150 175, 300 195 T550 185 T800 195 L800 250 L0 250Z" fill="url(#hill2)" opacity="0.7"/>
  <!-- Foreground hill -->
  <path d="M0 230 Q100 205, 250 215 T500 210 T750 218 T800 210 L800 250 L0 250Z" fill="url(#hill3)"/>

  <!-- Grass blades (foreground texture) -->
  <g opacity="0.6">
    <path d="M20 250 Q22 235, 18 220" stroke="#388E3C" stroke-width="1.5" fill="none"/>
    <path d="M30 250 Q34 238, 28 225" stroke="#43A047" stroke-width="1.2" fill="none"/>
    <path d="M75 250 Q78 240, 72 228" stroke="#388E3C" stroke-width="1.5" fill="none"/>
    <path d="M140 250 Q137 237, 143 222" stroke="#43A047" stroke-width="1.3" fill="none"/>
    <path d="M200 250 Q203 240, 198 230" stroke="#388E3C" stroke-width="1.2" fill="none"/>
    <path d="M260 250 Q258 238, 264 224" stroke="#43A047" stroke-width="1.5" fill="none"/>
    <path d="M340 250 Q343 242, 338 230" stroke="#388E3C" stroke-width="1.3" fill="none"/>
    <path d="M410 250 Q408 237, 413 222" stroke="#43A047" stroke-width="1.2" fill="none"/>
    <path d="M480 250 Q483 240, 478 228" stroke="#388E3C" stroke-width="1.5" fill="none"/>
    <path d="M550 250 Q548 235, 553 220" stroke="#43A047" stroke-width="1.3" fill="none"/>
    <path d="M620 250 Q623 242, 618 232" stroke="#388E3C" stroke-width="1.2" fill="none"/>
    <path d="M690 250 Q687 237, 693 224" stroke="#43A047" stroke-width="1.5" fill="none"/>
    <path d="M760 250 Q763 242, 758 230" stroke="#388E3C" stroke-width="1.3" fill="none"/>
  </g>

  <!-- ====== FLOWER 1: Pink rose (left) ====== -->
  <g>
    <animateTransform attributeName="transform" type="rotate" values="-2,80,250;2,80,250;-2,80,250" dur="5s" repeatCount="indefinite"/>
    <!-- Stem -->
    <path d="M80 250 Q85 230, 78 205 Q74 190, 80 175" stroke="#388E3C" stroke-width="3" fill="none"/>
    <!-- Leaves -->
    <path d="M78 215 Q60 208, 55 215 Q60 222, 78 215" fill="#66BB6A"/>
    <path d="M80 195 Q95 185, 100 193 Q93 200, 80 195" fill="#66BB6A"/>
    <!-- Petals -->
    <ellipse cx="72" cy="168" rx="9" ry="12" fill="url(#petalPink)" transform="rotate(-30,80,170)"/>
    <ellipse cx="88" cy="168" rx="9" ry="12" fill="url(#petalPink)" transform="rotate(30,80,170)"/>
    <ellipse cx="80" cy="160" rx="9" ry="12" fill="url(#petalPink)"/>
    <ellipse cx="73" cy="177" rx="8" ry="10" fill="url(#petalPink)" transform="rotate(-50,80,175)"/>
    <ellipse cx="87" cy="177" rx="8" ry="10" fill="url(#petalPink)" transform="rotate(50,80,175)"/>
    <!-- Center -->
    <circle cx="80" cy="170" r="5" fill="#F48FB1"/>
    <circle cx="80" cy="170" r="3" fill="#FCE4EC"/>
  </g>

  <!-- ====== FLOWER 2: Yellow sunflower ====== -->
  <g>
    <animateTransform attributeName="transform" type="rotate" values="2,220,250;-2,220,250;2,220,250" dur="4.5s" repeatCount="indefinite"/>
    <path d="M220 250 Q225 225, 218 195 Q215 180, 222 165" stroke="#388E3C" stroke-width="3" fill="none"/>
    <path d="M218 210 Q200 200, 195 208 Q200 216, 218 210" fill="#66BB6A"/>
    <path d="M220 185 Q240 178, 238 186 Q232 192, 220 185" fill="#66BB6A"/>
    <!-- Petals in a ring -->
    <ellipse cx="222" cy="150" rx="6" ry="13" fill="url(#petalYellow)"/>
    <ellipse cx="222" cy="150" rx="6" ry="13" fill="url(#petalYellow)" transform="rotate(45,222,163)"/>
    <ellipse cx="222" cy="150" rx="6" ry="13" fill="url(#petalYellow)" transform="rotate(90,222,163)"/>
    <ellipse cx="222" cy="150" rx="6" ry="13" fill="url(#petalYellow)" transform="rotate(135,222,163)"/>
    <ellipse cx="222" cy="150" rx="6" ry="13" fill="url(#petalYellow)" transform="rotate(180,222,163)"/>
    <ellipse cx="222" cy="150" rx="6" ry="13" fill="url(#petalYellow)" transform="rotate(225,222,163)"/>
    <ellipse cx="222" cy="150" rx="6" ry="13" fill="url(#petalYellow)" transform="rotate(270,222,163)"/>
    <ellipse cx="222" cy="150" rx="6" ry="13" fill="url(#petalYellow)" transform="rotate(315,222,163)"/>
    <!-- Center -->
    <circle cx="222" cy="163" r="8" fill="#795548"/>
    <circle cx="220" cy="161" r="2" fill="#5D4037"/>
    <circle cx="224" cy="164" r="1.5" fill="#5D4037"/>
    <circle cx="221" cy="166" r="1.5" fill="#5D4037"/>
  </g>

  <!-- ====== FLOWER 3: Purple tulip ====== -->
  <g>
    <animateTransform attributeName="transform" type="rotate" values="-1.5,370,250;1.5,370,250;-1.5,370,250" dur="6s" repeatCount="indefinite"/>
    <path d="M370 250 Q372 230, 368 200 Q366 185, 370 170" stroke="#2E7D32" stroke-width="3" fill="none"/>
    <path d="M368 215 Q350 205, 348 213 Q352 220, 368 215" fill="#4CAF50"/>
    <!-- Tulip cup petals -->
    <path d="M370 170 Q355 155, 358 140 Q362 132, 370 135" fill="url(#petalPurple)"/>
    <path d="M370 170 Q385 155, 382 140 Q378 132, 370 135" fill="url(#petalPurple)"/>
    <path d="M370 170 Q370 150, 370 135" stroke="#CE93D8" stroke-width="2" fill="none"/>
    <ellipse cx="370" cy="143" rx="8" ry="14" fill="url(#petalPurple)" opacity="0.7"/>
  </g>

  <!-- ====== FLOWER 4: Blue daisy ====== -->
  <g>
    <animateTransform attributeName="transform" type="rotate" values="1,520,250;-1.5,520,250;1,520,250" dur="5.5s" repeatCount="indefinite"/>
    <path d="M520 250 Q518 230, 522 205 Q524 190, 520 178" stroke="#388E3C" stroke-width="2.5" fill="none"/>
    <path d="M522 220 Q538 213, 540 220 Q535 226, 522 220" fill="#66BB6A"/>
    <!-- Petals -->
    <ellipse cx="520" cy="165" rx="5" ry="11" fill="url(#petalBlue)"/>
    <ellipse cx="520" cy="165" rx="5" ry="11" fill="url(#petalBlue)" transform="rotate(60,520,175)"/>
    <ellipse cx="520" cy="165" rx="5" ry="11" fill="url(#petalBlue)" transform="rotate(120,520,175)"/>
    <ellipse cx="520" cy="165" rx="5" ry="11" fill="url(#petalBlue)" transform="rotate(180,520,175)"/>
    <ellipse cx="520" cy="165" rx="5" ry="11" fill="url(#petalBlue)" transform="rotate(240,520,175)"/>
    <ellipse cx="520" cy="165" rx="5" ry="11" fill="url(#petalBlue)" transform="rotate(300,520,175)"/>
    <circle cx="520" cy="175" r="5" fill="#FFF9C4"/>
    <circle cx="520" cy="175" r="3" fill="#FFD54F"/>
  </g>

  <!-- ====== FLOWER 5: Red poppy ====== -->
  <g>
    <animateTransform attributeName="transform" type="rotate" values="-1,650,250;2,650,250;-1,650,250" dur="4s" repeatCount="indefinite"/>
    <path d="M650 250 Q655 225, 648 195 Q645 180, 650 168" stroke="#2E7D32" stroke-width="2.5" fill="none"/>
    <path d="M648 210 Q632 200, 630 208 Q634 215, 648 210" fill="#4CAF50"/>
    <!-- Petals -->
    <ellipse cx="642" cy="160" rx="10" ry="13" fill="url(#petalRed)" transform="rotate(-20,650,165)"/>
    <ellipse cx="658" cy="160" rx="10" ry="13" fill="url(#petalRed)" transform="rotate(20,650,165)"/>
    <ellipse cx="650" cy="155" rx="9" ry="12" fill="url(#petalRed)"/>
    <ellipse cx="644" cy="170" rx="8" ry="10" fill="url(#petalRed)" transform="rotate(-35,650,168)"/>
    <ellipse cx="656" cy="170" rx="8" ry="10" fill="url(#petalRed)" transform="rotate(35,650,168)"/>
    <circle cx="650" cy="165" r="5" fill="#212121"/>
    <circle cx="650" cy="165" r="3" fill="#424242"/>
  </g>

  <!-- ====== FLOWER 6: Small white wildflowers ====== -->
  <g>
    <animateTransform attributeName="transform" type="rotate" values="1,750,250;-1,750,250;1,750,250" dur="3.5s" repeatCount="indefinite"/>
    <path d="M745 250 Q747 238, 743 225" stroke="#388E3C" stroke-width="2" fill="none"/>
    <path d="M755 250 Q753 235, 757 218" stroke="#388E3C" stroke-width="2" fill="none"/>
    <path d="M765 250 Q767 240, 763 228" stroke="#43A047" stroke-width="1.5" fill="none"/>
    <!-- Small flowers -->
    <circle cx="743" cy="222" r="4" fill="url(#petalWhite)"/>
    <circle cx="743" cy="222" r="1.5" fill="#FFF9C4"/>
    <circle cx="757" cy="215" r="5" fill="url(#petalWhite)"/>
    <circle cx="757" cy="215" r="2" fill="#FFF9C4"/>
    <circle cx="763" cy="225" r="3.5" fill="url(#petalWhite)"/>
    <circle cx="763" cy="225" r="1.2" fill="#FFF9C4"/>
  </g>

  <!-- ====== BUTTERFLY 1 (orange) ====== -->
  <g>
    <animateTransform attributeName="transform" type="translate" values="0,0;250,-40;500,10;700,-30;800,0" dur="18s" repeatCount="indefinite"/>
    <g>
      <animateTransform attributeName="transform" type="translate" values="0,0;0,-3;0,3;0,0" dur="2s" repeatCount="indefinite"/>
      <!-- Left upper wing -->
      <path d="M0,0 Q-18,-18 -15,-8 Q-14,0 0,0" fill="url(#bfWingL)" opacity="0.9">
        <animateTransform attributeName="transform" type="rotate" values="0,0,0;-30,0,0;0,0,0" dur="0.4s" repeatCount="indefinite"/>
      </path>
      <!-- Left lower wing -->
      <path d="M0,0 Q-14,12 -10,6 Q-8,0 0,0" fill="#FFAB91" opacity="0.85">
        <animateTransform attributeName="transform" type="rotate" values="0,0,0;-20,0,0;0,0,0" dur="0.4s" repeatCount="indefinite"/>
      </path>
      <!-- Right upper wing -->
      <path d="M0,0 Q18,-18 15,-8 Q14,0 0,0" fill="url(#bfWingR)" opacity="0.9">
        <animateTransform attributeName="transform" type="rotate" values="0,0,0;30,0,0;0,0,0" dur="0.4s" repeatCount="indefinite"/>
      </path>
      <!-- Right lower wing -->
      <path d="M0,0 Q14,12 10,6 Q8,0 0,0" fill="#FFAB91" opacity="0.85">
        <animateTransform attributeName="transform" type="rotate" values="0,0,0;20,0,0;0,0,0" dur="0.4s" repeatCount="indefinite"/>
      </path>
      <!-- Wing spots -->
      <circle cx="-8" cy="-8" r="2" fill="#FFF3E0" opacity="0.7"/>
      <circle cx="8" cy="-8" r="2" fill="#FFF3E0" opacity="0.7"/>
      <!-- Body -->
      <ellipse cx="0" cy="0" rx="1.5" ry="6" fill="#4E342E"/>
      <!-- Antennae -->
      <path d="M0,-6 Q-5,-14 -7,-16" stroke="#5D4037" stroke-width="0.7" fill="none"/>
      <path d="M0,-6 Q5,-14 7,-16" stroke="#5D4037" stroke-width="0.7" fill="none"/>
      <circle cx="-7" cy="-16" r="1" fill="#5D4037"/>
      <circle cx="7" cy="-16" r="1" fill="#5D4037"/>
    </g>
  </g>

  <!-- ====== BUTTERFLY 2 (blue, smaller) ====== -->
  <g transform="translate(600,80)">
    <animateTransform attributeName="transform" type="translate" values="600,80;400,50;200,90;50,60;-50,80" dur="22s" repeatCount="indefinite"/>
    <g>
      <animateTransform attributeName="transform" type="translate" values="0,0;0,2;0,-2;0,0" dur="1.8s" repeatCount="indefinite"/>
      <path d="M0,0 Q-14,-14 -12,-5 Q-10,0 0,0" fill="url(#bf2WingL)" opacity="0.85">
        <animateTransform attributeName="transform" type="rotate" values="0,0,0;-25,0,0;0,0,0" dur="0.35s" repeatCount="indefinite"/>
      </path>
      <path d="M0,0 Q-10,9 -7,4 Q-5,0 0,0" fill="#90CAF9" opacity="0.7">
        <animateTransform attributeName="transform" type="rotate" values="0,0,0;-18,0,0;0,0,0" dur="0.35s" repeatCount="indefinite"/>
      </path>
      <path d="M0,0 Q14,-14 12,-5 Q10,0 0,0" fill="url(#bf2WingR)" opacity="0.85">
        <animateTransform attributeName="transform" type="rotate" values="0,0,0;25,0,0;0,0,0" dur="0.35s" repeatCount="indefinite"/>
      </path>
      <path d="M0,0 Q10,9 7,4 Q5,0 0,0" fill="#90CAF9" opacity="0.7">
        <animateTransform attributeName="transform" type="rotate" values="0,0,0;18,0,0;0,0,0" dur="0.35s" repeatCount="indefinite"/>
      </path>
      <circle cx="-6" cy="-6" r="1.5" fill="#E3F2FD" opacity="0.6"/>
      <circle cx="6" cy="-6" r="1.5" fill="#E3F2FD" opacity="0.6"/>
      <ellipse cx="0" cy="0" rx="1.2" ry="5" fill="#1A237E"/>
      <path d="M0,-5 Q-4,-11 -5,-13" stroke="#283593" stroke-width="0.6" fill="none"/>
      <path d="M0,-5 Q4,-11 5,-13" stroke="#283593" stroke-width="0.6" fill="none"/>
      <circle cx="-5" cy="-13" r="0.8" fill="#283593"/>
      <circle cx="5" cy="-13" r="0.8" fill="#283593"/>
    </g>
  </g>

  <!-- ====== BEE ====== -->
  <g>
    <animateTransform attributeName="transform" type="translate" values="350,110;300,90;380,100;420,120;350,110" dur="10s" repeatCount="indefinite"/>
    <g>
      <animateTransform attributeName="transform" type="rotate" values="-5,0,0;5,0,0;-5,0,0" dur="0.8s" repeatCount="indefinite"/>
      <!-- Wings -->
      <ellipse cx="-3" cy="-8" rx="7" ry="10" fill="white" opacity="0.55">
        <animateTransform attributeName="transform" type="rotate" values="-10,-3,-8;15,-3,-8;-10,-3,-8" dur="0.12s" repeatCount="indefinite"/>
      </ellipse>
      <ellipse cx="3" cy="-8" rx="7" ry="10" fill="white" opacity="0.55">
        <animateTransform attributeName="transform" type="rotate" values="10,3,-8;-15,3,-8;10,3,-8" dur="0.12s" repeatCount="indefinite"/>
      </ellipse>
      <!-- Body -->
      <ellipse cx="0" cy="0" rx="8" ry="6" fill="#FDD835"/>
      <!-- Stripes -->
      <rect x="-3" y="-6" width="6" height="2.5" rx="1" fill="#212121"/>
      <rect x="-3" y="-1.5" width="6" height="2.5" rx="1" fill="#212121"/>
      <rect x="-3" y="3" width="6" height="2.5" rx="1" fill="#212121"/>
      <!-- Head -->
      <circle cx="8" cy="0" r="4" fill="#212121"/>
      <!-- Eye -->
      <circle cx="10" cy="-1" r="1.2" fill="white"/>
      <!-- Stinger -->
      <path d="M-8,0 L-12,0" stroke="#212121" stroke-width="1.5" stroke-linecap="round"/>
    </g>
  </g>

  <!-- ====== Floating pollen / particles ====== -->
  <circle cx="100" cy="100" r="1.5" fill="#FFF9C4" opacity="0.6">
    <animate attributeName="cy" values="100;80;100" dur="8s" repeatCount="indefinite"/>
    <animate attributeName="cx" values="100;115;100" dur="10s" repeatCount="indefinite"/>
    <animate attributeName="opacity" values="0.6;0.2;0.6" dur="8s" repeatCount="indefinite"/>
  </circle>
  <circle cx="300" cy="120" r="1" fill="#FFF9C4" opacity="0.5">
    <animate attributeName="cy" values="120;95;120" dur="7s" repeatCount="indefinite"/>
    <animate attributeName="cx" values="300;310;300" dur="9s" repeatCount="indefinite"/>
    <animate attributeName="opacity" values="0.5;0.15;0.5" dur="7s" repeatCount="indefinite"/>
  </circle>
  <circle cx="550" cy="90" r="1.2" fill="#FFFFFF" opacity="0.5">
    <animate attributeName="cy" values="90;70;90" dur="9s" repeatCount="indefinite"/>
    <animate attributeName="cx" values="550;540;550" dur="11s" repeatCount="indefinite"/>
    <animate attributeName="opacity" values="0.5;0.1;0.5" dur="9s" repeatCount="indefinite"/>
  </circle>
  <circle cx="430" cy="110" r="1" fill="#FFF9C4" opacity="0.4">
    <animate attributeName="cy" values="110;85;110" dur="10s" repeatCount="indefinite"/>
    <animate attributeName="opacity" values="0.4;0.1;0.4" dur="10s" repeatCount="indefinite"/>
  </circle>
  <circle cx="700" cy="105" r="1.3" fill="#FFFFFF" opacity="0.4">
    <animate attributeName="cy" values="105;88;105" dur="8.5s" repeatCount="indefinite"/>
    <animate attributeName="cx" values="700;690;700" dur="12s" repeatCount="indefinite"/>
  </circle>

  <!-- ====== Title Text ====== -->
  <text x="400" y="85" text-anchor="middle" font-family="'Segoe UI', 'Helvetica Neue', Arial, sans-serif" font-size="36" font-weight="600" fill="#1B5E20" filter="url(#textShadow)" letter-spacing="1">
    JaganKSwain
  </text>
  <text x="400" y="115" text-anchor="middle" font-family="'Segoe UI', 'Helvetica Neue', Arial, sans-serif" font-size="14" fill="#4CAF50" letter-spacing="3" opacity="0.85">
    WELCOME TO MY DIGITAL GARDEN
  </text>

  <!-- Decorative vine below subtitle -->
  <path d="M310 125 Q340 128, 370 125 Q400 122, 430 125 Q460 128, 490 125" stroke="#81C784" stroke-width="1.5" fill="none" opacity="0.6"/>
  <circle cx="335" cy="126" r="2" fill="#A5D6A7" opacity="0.5"/>
  <circle cx="400" cy="123" r="2" fill="#A5D6A7" opacity="0.5"/>
  <circle cx="465" cy="126" r="2" fill="#A5D6A7" opacity="0.5"/>

  <!-- Rounded border -->
  <rect width="800" height="250" rx="12" fill="none" stroke="#C8E6C9" stroke-width="2"/>
</svg>
